<svg width="144" height="144" viewBox="0 0 144 144" fill="none" xmlns="http://www.w3.org/2000/svg">
<g filter="url(#filter0_d)">
<path d="M81.5283 66.4244C74.7425 65.0757 75.1818 65.1461 75.0281 65.172C74.9789 65.1802 74.3767 65.3013 72.9729 65.582C72.3844 63.885 70.7698 62.6632 68.875 62.6632C66.9784 62.6632 65.3626 63.8873 64.7754 65.5868L62.7002 65.1744C62.3384 65.1027 62 65.3792 62 65.7491V79.4991C62 79.7787 62.1975 80.0193 62.4717 80.0738C69.2002 81.4112 68.7596 81.3249 68.8043 81.3303C68.9457 81.3477 68.5085 81.42 75.1254 80.0966L81.2998 81.3238C81.6618 81.3957 82 81.1187 82 80.7491V66.9991C82 66.7196 81.8025 66.479 81.5283 66.4244ZM68.875 63.8351C70.6196 63.8351 72.0391 65.2545 72.0391 66.9991C72.0391 68.4711 69.6837 72.2077 68.875 73.444C68.0672 72.209 65.7109 68.4715 65.7109 66.9991C65.7109 65.2545 67.1304 63.8351 68.875 63.8351ZM63.1719 66.4629L64.5473 66.7363C64.542 66.8232 64.5391 66.9108 64.5391 66.9991C64.5391 67.9762 65.1782 69.5531 66.4932 71.8198C67.261 73.1433 68.0179 74.2797 68.2891 74.68V80.0352L63.1719 79.0182V66.4629ZM69.4609 74.68C69.7321 74.2797 70.489 73.1434 71.2568 71.8198C72.5718 69.5531 73.2109 67.9762 73.2109 66.9991C73.2109 66.9091 73.2079 66.8198 73.2024 66.7312L74.5391 66.4638V79.0188L69.4609 80.0344V74.68ZM80.8281 80.0353L75.7109 79.0182V66.463L80.8281 67.48V80.0353Z" fill="#DDA046"/>
<path d="M68.875 68.8351C69.8873 68.8351 70.7109 68.0115 70.7109 66.9991C70.7109 65.9868 69.8873 65.1632 68.875 65.1632C67.8627 65.1632 67.0391 65.9868 67.0391 66.9991C67.0391 68.0115 67.8627 68.8351 68.875 68.8351ZM68.875 66.3351C69.2412 66.3351 69.5391 66.633 69.5391 66.9991C69.5391 67.3653 69.2412 67.6632 68.875 67.6632C68.5088 67.6632 68.2109 67.3653 68.2109 66.9991C68.2109 66.633 68.5088 66.3351 68.875 66.3351Z" fill="#DDA046"/>
</g>
<defs>
<filter id="filter0_d" x="0" y="0" width="144" height="144" filterUnits="userSpaceOnUse" color-interpolation-filters="sRGB">
<feFlood flood-opacity="0" result="BackgroundImageFix"/>
<feColorMatrix in="SourceAlpha" type="matrix" values="0 0 0 0 0 0 0 0 0 0 0 0 0 0 0 0 0 0 127 0" result="hardAlpha"/>
<feOffset/>
<feGaussianBlur stdDeviation="31"/>
<feColorMatrix type="matrix" values="0 0 0 0 0.829167 0 0 0 0 0.746636 0 0 0 0 0.533431 0 0 0 1 0"/>
<feBlend mode="lighten" in2="BackgroundImageFix" result="effect1_dropShadow"/>
<feBlend mode="normal" in="SourceGraphic" in2="effect1_dropShadow" result="shape"/>
</filter>
</defs>
</svg>
