<svg width="144" height="144" viewBox="0 0 144 144" fill="none" xmlns="http://www.w3.org/2000/svg">
<g filter="url(#filter0_d)">
<path d="M81.9847 69.7186C81.9847 69.6885 81.978 69.6431 81.9663 69.6169C81.9355 69.5054 81.8672 69.4036 81.765 69.3325L78.902 67.3424V65.2089C78.902 64.9261 78.6726 64.6967 78.3898 64.6967H75.0961L72.2936 62.7484C72.1185 62.6265 71.8859 62.6259 71.7102 62.7474L68.8897 64.6967H65.6104C65.3275 64.6967 65.0982 64.9261 65.0982 65.2089V67.3172L62.2213 69.3056C62.0798 69.4034 62.0032 69.5597 62.0008 69.7196C62.0007 69.7226 62 69.7255 62 69.7286L62.0153 80.8315C62.0155 80.9674 62.0696 81.0975 62.1657 81.1935C62.2618 81.2892 62.3918 81.343 62.5275 81.343C62.5277 81.343 62.5279 81.343 62.5282 81.343L81.4885 81.3169C81.7713 81.3165 82.0004 81.0869 82 80.804L81.9847 69.7186ZM78.902 68.59L80.5386 69.7274L78.902 70.8652V68.59ZM72.0006 63.7922L73.3018 64.6967H70.6919L72.0006 63.7922ZM66.1226 65.7211H77.8776V71.5774L73.9309 74.3212L72.3217 73.073C72.3192 73.0711 72.3171 73.0699 72.3146 73.0681C72.1348 72.9332 71.8804 72.9282 71.6938 73.073L70.073 74.3302L66.1226 71.6V65.7211ZM65.0982 68.5624V70.8921L63.4128 69.7273L65.0982 68.5624ZM63.0257 70.7056L69.2237 74.989L63.0382 79.7868L63.0257 70.7056ZM64.0264 80.3166L72.0078 74.1258L79.9605 80.2947L64.0264 80.3166ZM74.7791 74.9792L80.9617 70.6809L80.9742 79.7847L74.7791 74.9792Z" fill="#DDA046"/>
<path d="M75.4676 67.77H68.5326C68.2498 67.77 68.0204 67.9994 68.0204 68.2822C68.0204 68.565 68.2498 68.7944 68.5326 68.7944H75.4676C75.7505 68.7944 75.9798 68.565 75.9798 68.2822C75.9798 67.9994 75.7505 67.77 75.4676 67.77Z" fill="#DDA046"/>
<path d="M75.4676 70.4333H68.5326C68.2498 70.4333 68.0204 70.6627 68.0204 70.9455C68.0204 71.2284 68.2498 71.4577 68.5326 71.4577H75.4676C75.7505 71.4577 75.9798 71.2284 75.9798 70.9455C75.9798 70.6627 75.7505 70.4333 75.4676 70.4333Z" fill="#DDA046"/>
</g>
<defs>
<filter id="filter0_d" x="0" y="0" width="144" height="144" filterUnits="userSpaceOnUse" color-interpolation-filters="sRGB">
<feFlood flood-opacity="0" result="BackgroundImageFix"/>
<feColorMatrix in="SourceAlpha" type="matrix" values="0 0 0 0 0 0 0 0 0 0 0 0 0 0 0 0 0 0 127 0" result="hardAlpha"/>
<feOffset/>
<feGaussianBlur stdDeviation="31"/>
<feColorMatrix type="matrix" values="0 0 0 0 0.829167 0 0 0 0 0.746636 0 0 0 0 0.533431 0 0 0 1 0"/>
<feBlend mode="lighten" in2="BackgroundImageFix" result="effect1_dropShadow"/>
<feBlend mode="normal" in="SourceGraphic" in2="effect1_dropShadow" result="shape"/>
</filter>
</defs>
</svg>
