<svg width="60" height="61" viewBox="0 0 60 61" fill="none" xmlns="http://www.w3.org/2000/svg">
<g clip-path="url(#clip0)">
<rect x="7.45386" y="3.46832" width="46.4602" height="51.5149" fill="white"/>
<path d="M26.3839 44.9701C26.3839 45.0438 26.3839 45.136 26.3431 45.1874C26.0666 45.5441 25.7375 45.8417 25.3056 45.9997C24.9304 46.1366 24.6316 45.9694 24.5526 45.5797C24.521 45.4257 24.5196 45.2637 24.5196 45.1057C24.5183 42.2027 24.5104 36.2505 24.5065 36.1781H22.3644C22.3644 36.2584 22.3618 44.5501 22.3671 46.1168C22.3684 46.5408 22.4131 46.9621 22.5896 47.3557C22.7791 47.7823 23.0938 48.0522 23.5625 48.1299C23.9061 48.1891 24.2419 48.1509 24.5684 48.039C25.2372 47.8086 25.7612 47.3742 26.2233 46.8528C26.2641 46.8067 26.3075 46.762 26.3852 46.679V47.9798H28.5325V42.2883C28.5325 40.3161 28.5325 36.1597 28.5325 36.1597L26.3839 36.1649V44.9701Z" fill="url(#paint0_linear)"/>
<path d="M36.5356 37.1011C36.0827 36.136 35.1308 35.8806 34.3053 36.0873C33.8051 36.2137 33.3996 36.502 33.0665 36.8746C32.9559 36.9997 32.8347 37.2419 32.8347 37.2419C32.8347 37.2419 32.8347 33.678 32.8347 31.9744H30.6835V47.9772H32.8347V47.0793C32.8347 47.0793 32.9875 47.2413 33.0428 47.3005C33.5365 47.8364 34.1355 48.13 34.8741 48.1365C35.7825 48.1458 36.4145 47.706 36.7015 46.8424C36.8345 46.4408 36.8779 46.0274 36.8792 45.6087C36.8819 43.3719 36.8819 41.135 36.8779 38.8982C36.8779 38.2794 36.8029 37.6713 36.5356 37.1011ZM34.6635 45.3416C34.6635 45.4614 34.649 45.5825 34.624 45.6997C34.5252 46.1684 34.1684 46.3791 33.6629 46.275C33.3561 46.2118 33.1165 46.0354 32.9111 45.8129C32.9019 45.8024 32.8413 45.7208 32.8413 45.7208V45.5457L32.8361 38.4402C32.8361 38.4402 32.8821 38.3085 32.9835 38.2203C33.2363 37.9965 33.5154 37.8556 33.8643 37.8898C34.1618 37.9188 34.3988 38.0557 34.5094 38.3309C34.5924 38.5402 34.6582 38.7732 34.6595 38.9971C34.67 41.1113 34.6661 43.2257 34.6635 45.3416Z" fill="url(#paint1_linear)"/>
<path d="M28.8002 23.1532C29.3019 23.1532 29.7099 22.7452 29.7099 22.2435V15.8251C29.7099 15.3235 29.3017 14.9155 28.8002 14.9155C28.2988 14.9155 27.8906 15.3237 27.8906 15.8251V22.2435C27.8905 22.745 28.2986 23.1532 28.8002 23.1532Z" fill="url(#paint2_linear)"/>
<path d="M22.3696 31.9756H14.9178V34.269H17.4285V47.9785H19.8537V34.2637H22.3696V31.9756Z" fill="url(#paint3_linear)"/>
<path d="M42.6817 43.7831V45.3011C42.6817 45.8317 42.2525 46.2609 41.7232 46.2609C41.1926 46.2609 40.7634 45.8317 40.7634 45.3011V42.3481H44.883C44.883 42.3481 44.9067 40.2877 44.8895 39.3529C44.883 38.954 44.8527 38.5498 44.771 38.1601C44.5578 37.149 44.014 36.3867 42.9963 36.0523C42.6975 35.9535 42.3762 35.9022 42.0616 35.8824C41.0149 35.8153 40.0986 36.1141 39.3823 36.9159C38.7543 37.6177 38.5358 38.4629 38.5345 39.3792C38.5305 41.1316 38.5226 42.8852 38.5397 44.6376C38.545 45.0839 38.595 45.5394 38.6964 45.9739C38.915 46.9074 39.4245 47.6407 40.3237 48.0462C40.9806 48.3437 41.6745 48.3582 42.3749 48.2555C43.5045 48.0896 44.2747 47.484 44.6473 46.3926C44.9277 45.575 44.8948 43.7831 44.8948 43.7831H42.6817ZM40.7634 38.8593C40.7634 38.3301 41.1926 37.8995 41.7232 37.8995C42.2525 37.8995 42.6817 38.3301 42.6817 38.8593V40.5169H40.7634V38.8593Z" fill="url(#paint4_linear)"/>
<path d="M0 0.588379V60.5884H60V0.588379H0ZM33.8009 13.0944H35.9858V22.1552C35.9858 22.2753 35.9954 22.3966 36.0165 22.5143C36.0827 22.8877 36.3588 23.0635 36.7184 22.9388C37.1567 22.7871 37.4912 22.4837 37.7748 22.1261C37.8151 22.075 37.8077 21.9797 37.8077 21.9048V13.0944H40.0086L40.0079 24.9757H37.8065L37.8091 23.6992C37.5657 23.939 37.358 24.1629 37.1297 24.3641C36.725 24.7206 36.2665 24.9865 35.7303 25.0914C34.907 25.2523 34.2058 24.9921 33.9433 24.1395C33.8559 23.8555 33.8031 23.5494 33.8009 23.2529V13.0944ZM28.8003 12.797C30.5413 12.797 31.9527 14.2084 31.9527 15.9494V22.1187C31.9527 23.8597 30.5413 25.2711 28.8003 25.2711C27.0593 25.2711 25.6479 23.8597 25.6479 22.1187V15.9494C25.6478 14.2084 27.0591 12.797 28.8003 12.797ZM20.3203 8.89196C20.3203 8.89196 21.3215 13.1446 21.7994 15.1591H21.8002C22.2781 13.1446 23.2794 8.89196 23.2794 8.89196H25.7847C25.7847 8.89196 23.8599 15.2756 22.9991 18.1225C22.968 18.2254 22.9539 18.3373 22.9539 18.4451L22.955 24.9732H20.6448L20.6457 18.4451C20.6457 18.3373 20.6315 18.2255 20.6006 18.1225C19.7398 15.2756 17.815 8.89196 17.815 8.89196H20.3203ZM47.8676 46.7821C47.8676 49.7022 45.5346 52.0878 42.6158 52.1497C34.2069 52.3301 25.794 52.3301 17.3838 52.1497C14.4663 52.0878 12.1333 49.7022 12.1333 46.7821V33.648C12.1333 30.7292 14.4663 28.3436 17.3838 28.2817C25.794 28.1013 34.2069 28.1013 42.6158 28.2817C45.5346 28.3436 47.8676 30.7292 47.8676 33.648V46.7821Z" fill="url(#paint5_linear)"/>
</g>
<defs>
<linearGradient id="paint0_linear" x1="25.4482" y1="36.1597" x2="25.4482" y2="48.1576" gradientUnits="userSpaceOnUse">
<stop stop-color="#E32828"/>
<stop offset="1" stop-color="#AE0000"/>
</linearGradient>
<linearGradient id="paint1_linear" x1="33.7823" y1="31.9744" x2="33.7823" y2="48.1367" gradientUnits="userSpaceOnUse">
<stop stop-color="#E32828"/>
<stop offset="1" stop-color="#AE0000"/>
</linearGradient>
<linearGradient id="paint2_linear" x1="28.8002" y1="14.9155" x2="28.8002" y2="23.1532" gradientUnits="userSpaceOnUse">
<stop stop-color="#E32828"/>
<stop offset="1" stop-color="#AE0000"/>
</linearGradient>
<linearGradient id="paint3_linear" x1="18.6437" y1="31.9756" x2="18.6437" y2="47.9785" gradientUnits="userSpaceOnUse">
<stop stop-color="#E32828"/>
<stop offset="1" stop-color="#AE0000"/>
</linearGradient>
<linearGradient id="paint4_linear" x1="41.7126" y1="35.8733" x2="41.7126" y2="48.3132" gradientUnits="userSpaceOnUse">
<stop stop-color="#E32828"/>
<stop offset="1" stop-color="#AE0000"/>
</linearGradient>
<linearGradient id="paint5_linear" x1="30" y1="0.588379" x2="30" y2="60.5884" gradientUnits="userSpaceOnUse">
<stop stop-color="#E32828"/>
<stop offset="1" stop-color="#AE0000"/>
</linearGradient>
<clipPath id="clip0">
<rect y="0.588379" width="60" height="60" rx="30" fill="white"/>
</clipPath>
</defs>
</svg>
